<svg width="594.4" height="73.501" viewBox="0 0 594.4 73.501" xmlns="http://www.w3.org/2000/svg"><g id="svgGroup" stroke-linecap="round" fill-rule="evenodd" font-size="9pt" stroke="#000" stroke-width="0.25mm" fill="#000" style="stroke:#000;stroke-width:0.25mm;fill:#000"><path d="M 281.3 69.9 L 281.3 52.1 L 288.2 52.1 L 289.9 63.6 A 71.838 71.838 0 0 0 306.057 65.498 A 79.37 79.37 0 0 0 306.6 65.5 A 80.711 80.711 0 0 0 310.482 65.413 Q 314.229 65.232 316.76 64.674 A 18.375 18.375 0 0 0 317.85 64.4 Q 321.7 63.3 323.1 60.95 A 8.756 8.756 0 0 0 324.005 58.758 Q 324.283 57.735 324.405 56.515 A 20.295 20.295 0 0 0 324.5 54.5 Q 324.5 50.615 323.776 48.542 A 5.636 5.636 0 0 0 323.3 47.5 A 5.203 5.203 0 0 0 321.963 46.049 Q 320.685 45.077 318.565 44.42 A 18.031 18.031 0 0 0 318.5 44.4 A 41.51 41.51 0 0 0 316.444 43.841 Q 313.414 43.086 308.081 42.056 A 427.846 427.846 0 0 0 304.6 41.4 L 302.1 40.9 Q 293.9 39.4 289.45 37.25 Q 285.191 35.193 283.314 31.899 A 10.709 10.709 0 0 1 283.15 31.6 A 14.164 14.164 0 0 1 281.952 28.377 Q 281.565 26.814 281.408 24.965 A 31.468 31.468 0 0 1 281.3 22.3 A 30.834 30.834 0 0 1 281.599 17.863 Q 281.932 15.581 282.634 13.711 A 14.201 14.201 0 0 1 283.95 11.05 Q 286.6 6.9 292.3 5.1 A 32.48 32.48 0 0 1 296.668 4.075 Q 298.967 3.688 301.675 3.494 A 81.867 81.867 0 0 1 307.5 3.3 Q 319.2 3.3 331.7 5.9 L 331.7 23.4 L 325.1 23.4 L 323.5 12.3 A 74.599 74.599 0 0 0 313.008 10.889 A 90.303 90.303 0 0 0 307.1 10.7 A 73.195 73.195 0 0 0 303.285 10.793 Q 299.698 10.981 297.274 11.55 A 17.494 17.494 0 0 0 296.5 11.75 A 13.85 13.85 0 0 0 294.51 12.471 Q 292.399 13.439 291.45 14.95 A 7.88 7.88 0 0 0 290.551 17.04 Q 290.276 18.028 290.169 19.208 A 17.586 17.586 0 0 0 290.1 20.8 Q 290.1 24.658 291.049 26.687 A 5.248 5.248 0 0 0 291.45 27.4 A 5.862 5.862 0 0 0 292.909 28.864 Q 293.631 29.384 294.585 29.813 A 15.338 15.338 0 0 0 296.45 30.5 Q 299.452 31.405 306.748 32.851 A 436.505 436.505 0 0 0 310.1 33.5 L 313.2 34.1 A 115.201 115.201 0 0 1 317.533 35.016 Q 322.639 36.207 325.55 37.5 A 13.115 13.115 0 0 1 328.954 39.652 A 11.083 11.083 0 0 1 331.45 42.85 Q 333.217 46.241 333.296 52.504 A 47.01 47.01 0 0 1 333.3 53.1 Q 333.3 60.6 330.6 64.9 Q 327.9 69.2 322.1 71.05 Q 316.421 72.862 306.714 72.899 A 106.711 106.711 0 0 1 306.3 72.9 A 106.676 106.676 0 0 1 290.59 71.786 A 88.26 88.26 0 0 1 281.3 69.9 Z M 464.6 71.5 L 464.6 57.1 L 470.6 57.1 L 473.5 65.6 A 62.574 62.574 0 0 0 479.779 66.328 A 79.451 79.451 0 0 0 485.1 66.5 Q 491.3 66.5 494.4 65.85 A 12.4 12.4 0 0 0 495.99 65.413 Q 497.724 64.8 498.557 63.77 A 3.594 3.594 0 0 0 498.65 63.65 Q 499.8 62.1 499.8 59.1 A 10.582 10.582 0 0 0 499.703 57.616 Q 499.595 56.858 499.368 56.247 A 4.184 4.184 0 0 0 498.7 55.05 Q 497.67 53.786 495.72 53.18 A 9.582 9.582 0 0 0 495.45 53.1 Q 493.3 52.5 488 51.7 L 481.2 50.5 A 91.68 91.68 0 0 1 477.483 49.745 Q 473.088 48.75 470.5 47.6 A 13.16 13.16 0 0 1 468.124 46.254 Q 466.665 45.199 465.789 43.831 A 7.947 7.947 0 0 1 465.45 43.25 A 10.584 10.584 0 0 1 464.595 40.983 Q 464.009 38.739 464 35.6 A 34.27 34.27 0 0 1 464 35.5 Q 464 31.732 464.915 29.044 A 11.284 11.284 0 0 1 465.95 26.8 Q 467.664 23.988 471.58 22.45 A 19.224 19.224 0 0 1 472.7 22.05 Q 477.5 20.5 486.2 20.5 A 94.139 94.139 0 0 1 493.797 20.83 Q 499.734 21.313 506.8 22.5 L 506.8 36.4 L 501 36.4 L 498.3 28.6 A 81.785 81.785 0 0 0 490.323 27.655 A 67.738 67.738 0 0 0 485.8 27.5 A 62.41 62.41 0 0 0 482.924 27.562 Q 480.219 27.687 478.386 28.067 A 14.758 14.758 0 0 0 477.8 28.2 A 11.171 11.171 0 0 0 476.287 28.686 Q 475.534 28.994 474.964 29.388 A 4.406 4.406 0 0 0 473.9 30.4 Q 473.07 31.532 472.866 33.404 A 11.999 11.999 0 0 0 472.8 34.7 Q 472.8 36.433 473.26 37.611 A 4.074 4.074 0 0 0 474 38.85 Q 474.869 39.828 476.523 40.49 A 13.225 13.225 0 0 0 477.9 40.95 Q 480.6 41.7 487.3 42.8 A 51.409 51.409 0 0 1 491.163 43.419 A 59.202 59.202 0 0 1 492.5 43.7 A 84.676 84.676 0 0 1 496.104 44.455 Q 500.356 45.45 502.8 46.6 Q 505.433 47.839 506.747 49.648 A 6.801 6.801 0 0 1 507.4 50.75 Q 508.575 53.248 508.599 57.711 A 34.796 34.796 0 0 1 508.6 57.9 A 25.719 25.719 0 0 1 508.369 61.465 Q 507.911 64.726 506.55 66.95 A 9.69 9.69 0 0 1 503.669 69.901 Q 501.885 71.113 499.35 71.9 Q 494.698 73.346 486.578 73.485 A 103.365 103.365 0 0 1 484.8 73.5 Q 480 73.5 475.5 73.05 Q 472.406 72.741 468.414 72.124 A 228.381 228.381 0 0 1 464.6 71.5 Z M 449.7 63.6 L 456.5 66.6 L 456.5 72.1 L 441.3 72.1 L 441.3 39 A 19.337 19.337 0 0 0 441.075 35.939 Q 440.815 34.322 440.255 33.047 A 7.735 7.735 0 0 0 438.45 30.45 Q 435.6 27.8 430.1 27.8 Q 426.6 27.8 423.25 28.7 Q 420.685 29.389 416.332 30.899 A 270.441 270.441 0 0 0 413.5 31.9 L 413.5 63.6 L 421.3 66.6 L 421.3 72.1 L 398.3 72.1 L 398.3 66.6 L 405.1 63.6 L 405.1 30.4 L 398.3 27.6 L 398.3 21.9 L 409.4 21.9 L 412 26 Q 417.6 23.1 422.6 21.8 Q 427.6 20.5 432.8 20.5 Q 439.1 20.5 442.8 22.45 A 10.954 10.954 0 0 1 447.775 27.858 A 14.227 14.227 0 0 1 448.1 28.65 A 20.903 20.903 0 0 1 449.011 31.921 Q 449.699 35.372 449.7 40.091 A 106.409 106.409 0 0 1 449.7 40.1 L 449.7 63.6 Z M 215.9 63.6 L 222.7 66.4 L 222.7 72.1 L 211.6 72.1 L 209 68 A 68.781 68.781 0 0 1 204.088 70.232 Q 201.511 71.276 199.127 71.959 A 40.606 40.606 0 0 1 198.25 72.2 Q 193.3 73.5 188.2 73.5 A 34.222 34.222 0 0 1 184.469 73.31 Q 182.571 73.101 180.997 72.664 A 13.946 13.946 0 0 1 178.15 71.55 Q 174.5 69.6 172.9 65.35 A 20.903 20.903 0 0 1 171.989 62.08 Q 171.3 58.625 171.3 53.9 L 171.3 30.4 L 164.5 27.4 L 164.5 21.9 L 179.7 21.9 L 179.7 55 A 19.337 19.337 0 0 0 179.925 58.062 Q 180.185 59.679 180.745 60.954 A 7.735 7.735 0 0 0 182.55 63.55 Q 185.4 66.2 190.9 66.2 Q 194.4 66.2 197.75 65.3 Q 200.315 64.611 204.668 63.102 A 270.441 270.441 0 0 0 207.5 62.1 L 207.5 30.2 L 200.7 27.4 L 200.7 21.9 L 215.9 21.9 L 215.9 63.6 Z M 151.1 63.6 L 157.9 66.6 L 157.9 72.1 L 146 72.1 L 143.4 64.9 A 31.344 31.344 0 0 1 138.782 68.742 A 25.277 25.277 0 0 1 134.45 71.1 Q 129.7 73.1 123.5 73.1 Q 118.266 73.1 114.483 71.708 A 16.4 16.4 0 0 1 112.35 70.75 A 13.085 13.085 0 0 1 107.659 66.385 A 18.922 18.922 0 0 1 105.8 62.75 A 26.822 26.822 0 0 1 104.547 58.364 Q 103.615 53.77 103.6 47.403 A 88.557 88.557 0 0 1 103.6 47.2 A 58.403 58.403 0 0 1 104.004 40.073 Q 104.957 32.346 108.162 27.871 A 15.593 15.593 0 0 1 109 26.8 Q 114.4 20.5 124.4 20.5 Q 129 20.5 133.4 21.8 Q 137.663 23.06 142.394 25.821 A 57.194 57.194 0 0 1 142.7 26 L 142.7 9.6 L 135.9 6.8 L 135.9 1.1 L 151.1 1.1 L 151.1 63.6 Z M 390.6 45.7 L 390.6 49.7 L 351.4 49.7 Q 351.9 56.4 353.85 59.95 Q 355.8 63.5 359.55 64.9 A 18.359 18.359 0 0 0 362.456 65.696 Q 365.464 66.281 369.626 66.3 A 61.387 61.387 0 0 0 369.9 66.3 Q 379.4 66.3 388.7 64 L 388.7 71.2 Q 385.348 72.06 381.037 72.661 A 102.679 102.679 0 0 1 379.6 72.85 A 84.128 84.128 0 0 1 372.686 73.437 A 71.467 71.467 0 0 1 369.7 73.5 Q 356.4 73.5 349.5 67.5 Q 344.419 63.082 343.08 54.056 A 48.199 48.199 0 0 1 342.6 47 A 42.589 42.589 0 0 1 343.199 39.602 Q 343.909 35.586 345.459 32.436 A 19.11 19.11 0 0 1 349.4 27 A 22.82 22.82 0 0 1 360.581 21.217 A 33.525 33.525 0 0 1 367.7 20.5 A 26.65 26.65 0 0 1 375.335 21.543 A 20.819 20.819 0 0 1 384.25 26.85 A 20.08 20.08 0 0 1 389.11 35.034 Q 390.6 39.646 390.6 45.7 Z M 564.7 45.7 L 564.7 49.7 L 525.5 49.7 Q 526 56.4 527.95 59.95 Q 529.9 63.5 533.65 64.9 A 18.359 18.359 0 0 0 536.556 65.696 Q 539.564 66.281 543.726 66.3 A 61.387 61.387 0 0 0 544 66.3 Q 553.5 66.3 562.8 64 L 562.8 71.2 Q 559.448 72.06 555.137 72.661 A 102.679 102.679 0 0 1 553.7 72.85 A 84.128 84.128 0 0 1 546.786 73.437 A 71.467 71.467 0 0 1 543.8 73.5 Q 530.5 73.5 523.6 67.5 Q 518.519 63.082 517.18 54.056 A 48.199 48.199 0 0 1 516.7 47 A 42.589 42.589 0 0 1 517.299 39.602 Q 518.009 35.586 519.559 32.436 A 19.11 19.11 0 0 1 523.5 27 A 22.82 22.82 0 0 1 534.681 21.217 A 33.525 33.525 0 0 1 541.8 20.5 A 26.65 26.65 0 0 1 549.435 21.543 A 20.819 20.819 0 0 1 558.35 26.85 A 20.08 20.08 0 0 1 563.21 35.034 Q 564.7 39.646 564.7 45.7 Z M 264.9 37 L 260.9 28 A 49.441 49.441 0 0 0 254.037 30.325 A 55.258 55.258 0 0 0 253.05 30.75 A 57.059 57.059 0 0 0 248.875 32.798 A 44.997 44.997 0 0 0 246 34.5 L 246 63.6 L 255.3 66.6 L 255.3 72.1 L 230.8 72.1 L 230.8 66.6 L 237.6 63.6 L 237.6 30.4 L 230.8 27.6 L 230.8 21.9 L 241.9 21.9 L 245.7 27.9 A 44.642 44.642 0 0 1 252.188 23.878 A 37.809 37.809 0 0 1 255.9 22.25 A 32.593 32.593 0 0 1 260.797 20.819 A 24.42 24.42 0 0 1 265.7 20.3 A 14.628 14.628 0 0 1 267.985 20.466 Q 270.663 20.891 272.1 22.4 A 6.422 6.422 0 0 1 273.467 24.678 Q 274.1 26.425 274.1 28.9 A 10.192 10.192 0 0 1 273.595 32.252 Q 271.944 37 264.9 37 Z M 37 4.1 L 37 9.8 L 29.6 12.7 L 29.6 49 A 48.226 48.226 0 0 1 29.181 55.598 Q 28.13 63.185 24.443 67.341 A 14.469 14.469 0 0 1 24.3 67.5 Q 19 73.3 8.6 73.3 Q 3.7 73.3 0 72.5 L 0 65.5 A 41.475 41.475 0 0 0 4.549 66.012 A 51.521 51.521 0 0 0 7.6 66.1 A 21.55 21.55 0 0 0 11.281 65.808 Q 15.586 65.06 17.85 62.4 A 10.506 10.506 0 0 0 19.627 59.273 Q 20.757 56.285 20.957 51.731 A 46.323 46.323 0 0 0 21 49.7 L 21 12.7 L 12.6 9.8 L 12.6 4.1 L 37 4.1 Z M 77.447 21.384 A 33.793 33.793 0 0 0 69.5 20.5 A 34.314 34.314 0 0 0 62.131 21.251 A 23.59 23.59 0 0 0 51.05 26.85 Q 46.109 31.365 44.681 39.645 A 43.365 43.365 0 0 0 44.1 47 A 46.696 46.696 0 0 0 44.371 52.158 Q 45.472 62.054 51.05 67.15 A 23.433 23.433 0 0 0 61.553 72.617 A 33.793 33.793 0 0 0 69.5 73.5 A 34.314 34.314 0 0 0 76.869 72.75 A 23.59 23.59 0 0 0 87.95 67.15 Q 92.891 62.636 94.319 54.356 A 43.365 43.365 0 0 0 94.9 47 A 46.696 46.696 0 0 0 94.629 41.843 Q 93.528 31.947 87.95 26.85 A 23.433 23.433 0 0 0 77.447 21.384 Z M 587.6 21.9 L 587.6 63.6 L 594.4 66.6 L 594.4 72.1 L 572.4 72.1 L 572.4 66.6 L 579.2 63.6 L 579.2 30.4 L 572.4 27.6 L 572.4 21.9 L 587.6 21.9 Z M 69.5 27.7 A 34.51 34.51 0 0 0 65.826 27.883 Q 64.026 28.077 62.52 28.474 A 14.516 14.516 0 0 0 59.95 29.4 A 10.18 10.18 0 0 0 55.603 33.413 A 13.961 13.961 0 0 0 54.65 35.3 A 18.849 18.849 0 0 0 53.654 38.578 Q 52.9 42.078 52.9 47 Q 52.9 54.329 54.571 58.507 A 14.613 14.613 0 0 0 54.65 58.7 A 12.959 12.959 0 0 0 56.369 61.7 A 9.927 9.927 0 0 0 59.95 64.6 A 14.972 14.972 0 0 0 62.957 65.636 Q 65.75 66.3 69.5 66.3 A 34.51 34.51 0 0 0 73.174 66.117 Q 74.974 65.924 76.48 65.527 A 14.516 14.516 0 0 0 79.05 64.6 A 10.18 10.18 0 0 0 83.397 60.588 A 13.961 13.961 0 0 0 84.35 58.7 A 18.849 18.849 0 0 0 85.346 55.423 Q 86.1 51.922 86.1 47 Q 86.1 39.672 84.429 35.494 A 14.613 14.613 0 0 0 84.35 35.3 A 12.959 12.959 0 0 0 82.631 32.3 A 9.927 9.927 0 0 0 79.05 29.4 A 14.972 14.972 0 0 0 76.043 28.364 Q 73.25 27.7 69.5 27.7 Z M 142.7 59.3 L 142.7 31.9 Q 137.877 30.139 134.841 29.199 A 58.796 58.796 0 0 0 133.15 28.7 Q 129.9 27.8 126.4 27.8 A 17.793 17.793 0 0 0 122.321 28.237 Q 119.546 28.89 117.611 30.524 A 10.272 10.272 0 0 0 115.65 32.75 Q 112.616 37.372 112.414 46.657 A 61.978 61.978 0 0 0 112.4 48 A 57.149 57.149 0 0 0 112.532 52.02 Q 112.799 55.795 113.607 58.367 A 15.823 15.823 0 0 0 113.75 58.8 A 12.893 12.893 0 0 0 114.849 61.204 Q 116.063 63.233 117.9 64.25 A 11.259 11.259 0 0 0 120.675 65.31 Q 122.669 65.8 125.2 65.8 Q 134.5 65.8 142.7 59.3 Z M 351.5 42.6 L 381.7 42.6 A 27.913 27.913 0 0 0 381.042 38.332 Q 380.006 34.028 377.6 31.45 A 11.1 11.1 0 0 0 372.608 28.424 Q 370.826 27.881 368.675 27.746 A 23.42 23.42 0 0 0 367.2 27.7 Q 362.554 27.7 359.397 28.942 A 10.713 10.713 0 0 0 355.8 31.2 A 11.713 11.713 0 0 0 353.354 34.77 Q 351.916 37.91 351.5 42.6 Z M 525.6 42.6 L 555.8 42.6 A 27.913 27.913 0 0 0 555.142 38.332 Q 554.106 34.028 551.7 31.45 A 11.1 11.1 0 0 0 546.708 28.424 Q 544.926 27.881 542.775 27.746 A 23.42 23.42 0 0 0 541.3 27.7 Q 536.654 27.7 533.497 28.942 A 10.713 10.713 0 0 0 529.9 31.2 A 11.713 11.713 0 0 0 527.454 34.77 Q 526.016 37.91 525.6 42.6 Z M 584.739 0.251 A 8.644 8.644 0 0 0 582.6 0 A 8.98 8.98 0 0 0 580.848 0.163 A 6.209 6.209 0 0 0 577.65 1.8 Q 576.421 2.996 576.009 4.852 A 9.438 9.438 0 0 0 575.8 6.9 A 11.389 11.389 0 0 0 575.804 7.219 Q 575.835 8.322 576.082 9.25 A 5.85 5.85 0 0 0 577.65 12 A 6.118 6.118 0 0 0 580.461 13.55 A 8.644 8.644 0 0 0 582.6 13.8 A 8.98 8.98 0 0 0 584.352 13.637 A 6.209 6.209 0 0 0 587.55 12 Q 588.779 10.805 589.191 8.948 A 9.438 9.438 0 0 0 589.4 6.9 A 11.389 11.389 0 0 0 589.396 6.582 Q 589.365 5.479 589.118 4.551 A 5.85 5.85 0 0 0 587.55 1.8 A 6.118 6.118 0 0 0 584.739 0.251 Z" vector-effect="non-scaling-stroke"/></g></svg>