<svg width="220.0400146484375px" height="122.75999755859375px" xmlns="http://www.w3.org/2000/svg" viewBox="139.97999267578126 13.620001220703124 220.0400146484375 122.75999755859375" style="background: none;" preserveAspectRatio="xMidYMid"><defs><filter id="editing-extrusion" x="-100%" y="-100%" width="300%" height="300%"><feFlood result="color1" flood-color="#dc7300"></feFlood><feConvolveMatrix order="8,8" divisor="1" kernelMatrix="1 0 0 0 0 0 0 0 0 1 0 0 0 0 0 0 0 0 1 0 0 0 0 0 0 0 0 1 0 0 0 0 0 0 0 0 1 0 0 0 0 0 0 0 0 1 0 0 0 0 0 0 0 0 1 0 0 0 0 0 0 0 0 1" in="SourceAlpha" result="extrude"></feConvolveMatrix><feComposite in="color1" in2="extrude" result="comp-extrude" operator="in"></feComposite><feOffset dx="4" dy="4" in="comp-extrude" result="offset-extrude"></feOffset><feMerge><feMergeNode in="offset-extrude"></feMergeNode><feMergeNode in="SourceGraphic"></feMergeNode></feMerge></filter></defs><g filter="url(#editing-extrusion)"><g transform="translate(177.93500703573227, 102.5199966430664)"><path d="M27.84-9.86L27.84-9.86L27.84-9.86Q29.06-8.32 29.06-5.34L29.06-5.34L29.06-5.34Q29.06-2.37 26.78-0.54L26.78-0.54L26.78-0.54Q24.51 1.28 20.54 1.28L20.54 1.28L20.54 1.28Q18.24 1.28 14.66 0.77L14.66 0.77L14.66 0.77Q7.62-0.32 5.60-0.32L5.60-0.32L5.60-0.32Q3.58-0.32 2.75-0.22L2.75-0.22L2.75-0.22Q1.92-0.13 0.58 0L0.58 0L8.32-42.24L22.34-42.24L15.94-7.04L15.94-7.04Q16.77-6.91 17.54-6.91L17.54-6.91L19.14-6.91L19.14-6.91Q24.51-6.91 27.84-9.86ZM47.30 1.28L47.30 1.28L47.30 1.28Q33.22 1.28 33.22-11.97L33.22-11.97L33.22-11.97Q33.22-21.38 38.40-27.46L38.40-27.46L38.40-27.46Q43.90-33.92 53.44-33.92L53.44-33.92L53.44-33.92Q60.35-33.92 63.87-30.72L63.87-30.72L63.87-30.72Q67.39-27.52 67.39-20.80L67.39-20.80L67.39-20.80Q67.39-10.56 61.89-4.61L61.89-4.61L61.89-4.61Q56.51 1.28 47.30 1.28ZM48.96-26.56L48.96-26.56L48.96-26.56Q48.19-24.83 47.58-22.24L47.58-22.24L47.58-22.24Q46.98-19.65 46.21-15.55L46.21-15.55L46.21-15.55Q45.44-11.46 45.44-6.40L45.44-6.40L45.44-6.40Q45.44-4.74 45.98-3.65L45.98-3.65L45.98-3.65Q46.53-2.56 48-2.56L48-2.56L48-2.56Q49.47-2.56 50.40-3.26L50.40-3.26L50.40-3.26Q51.33-3.97 52.03-5.63L52.03-5.63L52.03-5.63Q53.31-8.58 54.34-14.05L54.34-14.05L54.34-14.05Q55.36-19.52 55.46-21.89L55.46-21.89L55.46-21.89Q55.55-24.26 55.55-26.02L55.55-26.02L55.55-26.02Q55.55-27.78 55.04-28.93L55.04-28.93L55.04-28.93Q54.53-30.08 53.09-30.08L53.09-30.08L53.09-30.08Q51.65-30.08 50.69-29.18L50.69-29.18L50.69-29.18Q49.73-28.29 48.96-26.56ZM75.71-26.75L75.71-26.75L75.71-26.75Q77.89-29.82 81.18-31.87L81.18-31.87L81.18-31.87Q84.48-33.92 88.51-33.92L88.51-33.92L88.51-33.92Q92.54-33.92 94.46-32.64L94.46-32.64L107.01-33.92L102.66-9.34L102.66-9.34Q100.42 3.20 95.68 8.13L95.68 8.13L95.68 8.13Q91.14 12.80 82.30 12.80L82.30 12.80L82.30 12.80Q75.58 12.80 71.74 10.69L71.74 10.69L71.74 10.69Q67.90 8.58 67.90 5.06L67.90 5.06L67.90 5.06Q67.90 2.43 69.89 0.93L69.89 0.93L69.89 0.93Q71.87-0.58 74.94-0.58L74.94-0.58L74.94-0.58Q77.63-0.58 79.68 0.64L79.68 0.64L79.68 0.64Q80.90 1.28 81.47 2.18L81.47 2.18L81.47 2.18Q80 3.46 80 5.57L80 5.57L80 5.57Q80 8.32 82.56 8.32L82.56 8.32L82.56 8.32Q86.85 8.32 89.28-1.79L89.28-1.79L89.28-1.79Q89.98-4.54 90.56-7.30L90.56-7.30L90.56-7.30Q87.68-3.78 81.15-3.78L81.15-3.78L81.15-3.78Q76.61-3.78 73.98-5.95L73.98-5.95L73.98-5.95Q71.36-8.13 71.36-13.25L71.36-13.25L71.36-13.25Q71.36-16.45 72.45-20.06L72.45-20.06L72.45-20.06Q73.54-23.68 75.71-26.75ZM84.03-13.06L84.03-13.06L84.03-13.06Q84.03-8.70 86.27-8.70L86.27-8.70L86.27-8.70Q87.81-8.70 89.28-10.37L89.28-10.37L89.28-10.37Q90.43-11.71 90.88-13.70L90.88-13.70L94.14-30.14L94.14-30.14Q93.82-30.21 93.50-30.34L93.50-30.34L93.50-30.34Q92.86-30.59 92.03-30.59L92.03-30.59L92.03-30.59Q88.13-30.59 85.82-24.19L85.82-24.19L85.82-24.19Q84.03-19.20 84.03-13.06ZM123.46 1.28L123.46 1.28L123.46 1.28Q109.38 1.28 109.38-11.97L109.38-11.97L109.38-11.97Q109.38-21.38 114.56-27.46L114.56-27.46L114.56-27.46Q120.06-33.92 129.60-33.92L129.60-33.92L129.60-33.92Q136.51-33.92 140.03-30.72L140.03-30.72L140.03-30.72Q143.55-27.52 143.55-20.80L143.55-20.80L143.55-20.80Q143.55-10.56 138.05-4.61L138.05-4.61L138.05-4.61Q132.67 1.28 123.46 1.28ZM125.12-26.56L125.12-26.56L125.12-26.56Q124.35-24.83 123.74-22.24L123.74-22.24L123.74-22.24Q123.14-19.65 122.37-15.55L122.37-15.55L122.37-15.55Q121.60-11.46 121.60-6.40L121.60-6.40L121.60-6.40Q121.60-4.74 122.14-3.65L122.14-3.65L122.14-3.65Q122.69-2.56 124.16-2.56L124.16-2.56L124.16-2.56Q125.63-2.56 126.56-3.26L126.56-3.26L126.56-3.26Q127.49-3.97 128.19-5.63L128.19-5.63L128.19-5.63Q129.47-8.58 130.50-14.05L130.50-14.05L130.50-14.05Q131.52-19.52 131.62-21.89L131.62-21.89L131.62-21.89Q131.71-24.26 131.71-26.02L131.71-26.02L131.71-26.02Q131.71-27.78 131.20-28.93L131.20-28.93L131.20-28.93Q130.69-30.08 129.25-30.08L129.25-30.08L129.25-30.08Q127.81-30.08 126.85-29.18L126.85-29.18L126.85-29.18Q125.89-28.29 125.12-26.56Z" fill="#000000"></path></g></g><style>text {
  font-size: 64px;
  font-family: Arial Black;
  dominant-baseline: central;
  text-anchor: middle;
}</style></svg>